# xmcd CD database file
#
# Track frame offsets:
#	150
#	16540
#	36535
#	55137
#	85137
#	100932
#	119052
#	148710
#	168927
#	184635
#	210055
#	228160
#	251552
#
# Disc length: 3670 seconds
#
# Revision: 0
# Processed by: cddbd v1.5.2PL0 Copyright (c) Steve Scherf et al.
# Submitted via: CDex 1.51
#
DISCID=a20e540d
DTITLE=Stefanos and Baldassare - First Touch
DYEAR=2001
DGENRE=New Age
TTITLE0=The dawning
TTITLE1=A tale of two childhoods
TTITLE2=When a dream comes true
TTITLE3=A New York story
TTITLE4=Rain waltz
TTITLE5=Passion and pain
TTITLE6=The last hope
TTITLE7=Prelude in D minor
TTITLE8=First touch
TTITLE9=Adagio
TTITLE10=Sensitivities
TTITLE11=Venetia
TTITLE12=Mist
EXTD=YEAR: 2001
EXTT0=
EXTT1=
EXTT2=
EXTT3=
EXTT4=
EXTT5=
EXTT6=
EXTT7=
EXTT8=
EXTT9=
EXTT10=
EXTT11=
EXTT12=
PLAYORDER=
